# xmcd CD database file
#
# Track frame offsets:
#	150
#	22253
#	43423
#	61436
#	81384
#	99790
#	118479
#	140638
#	158974
#	178696
#	197603
#	214870
#	235903
#	253231
#	271902
#	290443
#	306949
#	324973
#
# Disc length: 4661 seconds
#
# Revision: 2
# Processed by: cddbd v1.4PL0 Copyright (c) Steve Scherf et al.
# Submitted via: CDex 1.50
#
DISCID=18123312
DTITLE=Rod Stewart - Best
DYEAR=2003
DGENRE=Blues
TTITLE0=Young Turks
TTITLE1=Baby Jane
TTITLE2=Tonight I'm Yours (Don'T Hurt Me)
TTITLE3=Some
TTITLE4=Forever Young
TTITLE5=Rhythm Of My Heart
TTITLE6=You'ar Down And Out - Crasy About Her
TTITLE7=Sonny
TTITLE8=Sailing
TTITLE9=Strangers Again
TTITLE10=Human
TTITLE11=Every Beat Of My Heart
TTITLE12=Don't Come Around Here
TTITLE13=Downtown Train
TTITLE14=You Are Everything
TTITLE15=Shelly My Love
TTITLE16=Loveless
TTITLE17=Da Ya Think I'm Sexy?
EXTD=YEAR: 2003
EXTT0=
EXTT1=
EXTT2=
EXTT3=
EXTT4=
EXTT5=
EXTT6=
EXTT7=
EXTT8=
EXTT9=
EXTT10=
EXTT11=
EXTT12=
EXTT13=
EXTT14=
EXTT15=
EXTT16=
EXTT17=
PLAYORDER=
